<?xml version="1.0" encoding="UTF-8" standalone="no"?>
<svg viewBox="0 0 88 62" version="1.1" xmlns="http://www.w3.org/2000/svg" xmlns:xlink="http://www.w3.org/1999/xlink" xmlns:sketch="http://www.bohemiancoding.com/sketch/ns">
    <!-- Generator: Sketch 3.3.3 (12072) - http://www.bohemiancoding.com/sketch -->
    <title>Shape + Shape + Shape</title>
    <desc>Created with Sketch.</desc>
    <defs></defs>
    <g id="Page-1" stroke="none" stroke-width="1" fill="none" fill-rule="evenodd" sketch:type="MSPage">
        <g id="Shape-+-Shape-+-Shape" sketch:type="MSLayerGroup" fill="#999999">
            <path d="M5.093,27.7356877 L26.166,13.6636877 C27.084,13.0506877 27.332,11.8086877 26.718,10.8896877 C26.105,9.9716877 24.864,9.7226877 23.944,10.3376877 L2.871,24.4096877 C1.073,25.6096877 -1.77635684e-15,27.6176877 -1.77635684e-15,29.7796877 C-1.77635684e-15,31.9416877 1.073,33.9496877 2.871,35.1496877 L23.944,49.2216877 C24.285,49.4496877 24.671,49.5586877 25.053,49.5586877 C25.699,49.5586877 26.333,49.2466877 26.718,48.6696877 C27.332,47.7506877 27.084,46.5086877 26.166,45.8956877 L5.093,31.8226877 C4.399,31.3586877 4,30.6146877 4,29.7786877 C4,28.9436877 4.399,28.1996877 5.093,27.7356877 L5.093,27.7356877 Z" id="Shape" sketch:type="MSShapeGroup"></path>
            <path d="M84.1852475,24.4092475 L63.1112475,10.3372475 C62.1932475,9.72324746 60.9502475,9.97124746 60.3372475,10.8892475 C59.7232475,11.8082475 59.9712475,13.0502475 60.8892475,13.6632475 L81.9622475,27.7352475 C82.6562475,28.1992475 83.0552475,28.9432475 83.0552475,29.7782475 C83.0552475,30.6132475 82.6572475,31.3582475 81.9622475,31.8222475 L60.8902475,45.8952475 C59.9722475,46.5082475 59.7242475,47.7502475 60.3382475,48.6692475 C60.7232475,49.2462475 61.3572475,49.5582475 62.0032475,49.5582475 C62.3842475,49.5582475 62.7712475,49.4492475 63.1122475,49.2212475 L84.1852475,35.1492475 C85.9832475,33.9492475 87.0562475,31.9412475 87.0562475,29.7792475 C87.0562475,27.6172475 85.9832475,25.6092475 84.1852475,24.4092475 L84.1852475,24.4092475 Z" id="Shape" sketch:type="MSShapeGroup"></path>
            <path d="M52.83528,0.0949038252 C51.78328,-0.240096175 50.65828,0.339903825 50.32228,1.39190383 L32.09528,58.5019038 C31.75928,59.5539038 32.34028,60.6789038 33.39228,61.0149038 C33.59428,61.0789038 33.79928,61.1099038 34.00028,61.1099038 C34.84728,61.1099038 35.63328,60.5679038 35.90528,59.7169038 L54.13228,2.60790383 C54.46828,1.55590383 53.88728,0.430903825 52.83528,0.0949038252 L52.83528,0.0949038252 Z" id="Shape" sketch:type="MSShapeGroup"></path>
        </g>
    </g>
</svg>