<?xml version="1.0" encoding="UTF-8" standalone="no"?>
<svg viewBox="0 0 52 40" version="1.1" xmlns="http://www.w3.org/2000/svg" xmlns:xlink="http://www.w3.org/1999/xlink" xmlns:sketch="http://www.bohemiancoding.com/sketch/ns">
    <!-- Generator: Sketch 3.3.3 (12072) - http://www.bohemiancoding.com/sketch -->
    <title>Group</title>
    <desc>Created with Sketch.</desc>
    <defs></defs>
    <g id="Page-1" stroke="none" stroke-width="1" fill="none" fill-rule="evenodd" sketch:type="MSPage">
        <g id="Group" sketch:type="MSLayerGroup" transform="translate(-1.000000, 0.000000)" fill="#999999">
            <path d="M51.502,3.368 C52.33,3.368 53.002,2.697 53.002,1.868 C53.002,1.039 52.33,0.368 51.502,0.368 L2.498,0.368 C1.67,0.368 0.998,1.039 0.998,1.868 C0.998,2.697 1.67,3.368 2.498,3.368 L51.502,3.368 Z" id="Shape" sketch:type="MSShapeGroup"></path>
            <path d="M2.498,18.5 C1.67,18.5 0.998,19.171 0.998,20 C0.998,20.829 1.67,21.5 2.498,21.5 L51.502,21.5 C52.33,21.5 53.002,20.829 53.002,20 C53.002,19.171 52.33,18.5 51.502,18.5 L2.498,18.5 Z" id="Shape" sketch:type="MSShapeGroup"></path>
            <path d="M51.502,36.632 L2.498,36.632 C1.67,36.632 0.998,37.303 0.998,38.132 C0.998,38.961 1.67,39.632 2.498,39.632 L51.502,39.632 C52.33,39.632 53.002,38.961 53.002,38.132 C53.002,37.303 52.33,36.632 51.502,36.632 L51.502,36.632 Z" id="Shape" sketch:type="MSShapeGroup"></path>
        </g>
    </g>
</svg>